<svg id="Layer_1" data-name="Layer 1" xmlns="http://www.w3.org/2000/svg" viewBox="0 0 156.01 203.02"><defs><style>.cls-1{fill:#b3b3b3;}.cls-2{fill:#333;}</style></defs><title>logo</title><path class="cls-1" d="M153.07,32.87l-32.32,123.4c-4.7,18.8-7.34,30-9.4,41.13A56.34,56.34,0,0,0,109,186.53l-4.41-17.92-3.82-13.81L67.87,32.87H32.32v196H53.77V101.33c0-11.17-.29-20.86-1.18-43.48,3.53,13.22,6.76,25.56,11.16,40.54l33.9,119.46h26.19L156.6,101.33c2.94-10.58,6.46-23.5,7.05-25.86,0.88-3.82,1.76-7.64,2.64-11.16,0.29-.88.88-3.23,1.76-6.46-0.59,9.11-1.18,30-1.18,43.48V228.84h21.45v-196H153.07Z" transform="translate(-32.32 -29.35)"/><path class="cls-2" d="M143,85.46c-0.88-26.15-10.87-37.61-32.91-37.61-20.86,0-33.49,12-33.49,32C76.63,97.22,84,106,104,113.38l27.32,9.7c16.16,5.88,24.68,11.46,30.85,20,6.17,8.81,9.11,19.69,9.11,33.2,0,35.26-22.33,56.12-60.23,56.12-30.26,0-49.95-12.63-56.7-36.73-2.64-9.4-3.23-13.81-3.23-28.21h23.8v7.35c0,26.15,12,39.08,36.43,39.08S148,201.81,148,178c0-19.39-5.88-26.15-28.79-34.67l-22-7.64c-31.14-11.17-42-25-42-52,0-33.49,21.45-54.35,56.12-54.35,22.33,0,39.66,8.81,48.18,25,4.11,8.23,6.17,17,6.46,31.14H143Z" transform="translate(-32.32 -29.35)"/></svg>